<?xml version="1.0" encoding="UTF-8" standalone="no"?>
<!-- Created with Inkscape (http://www.inkscape.org/) -->

<svg
   xmlns:dc="http://purl.org/dc/elements/1.1/"
   xmlns:cc="http://creativecommons.org/ns#"
   xmlns:rdf="http://www.w3.org/1999/02/22-rdf-syntax-ns#"
   xmlns:svg="http://www.w3.org/2000/svg"
   xmlns="http://www.w3.org/2000/svg"
   xmlns:sodipodi="http://sodipodi.sourceforge.net/DTD/sodipodi-0.dtd"
   xmlns:inkscape="http://www.inkscape.org/namespaces/inkscape"
   version="1.1"
   id="svg2"
   xml:space="preserve"
   width="2630"
   height="620.53198"
   viewBox="0 0 2630 620.53198"
   sodipodi:docname="ethereum-logo.svg"
   inkscape:version="0.92.5 (2060ec1f9f, 2020-04-08)"><metadata
     id="metadata8"><rdf:RDF><cc:Work
         rdf:about=""><dc:format>image/svg+xml</dc:format><dc:type
           rdf:resource="http://purl.org/dc/dcmitype/StillImage" /><dc:title></dc:title></cc:Work></rdf:RDF></metadata><defs
     id="defs6"><clipPath
       clipPathUnits="userSpaceOnUse"
       id="clipPath42"><path
         d="M 0,721.149 H 936 V 0 H 0 Z"
         id="path40"
         inkscape:connector-curvature="0" /></clipPath></defs><sodipodi:namedview
     pagecolor="#ffffff"
     bordercolor="#666666"
     borderopacity="1"
     objecttolerance="10"
     gridtolerance="10"
     guidetolerance="10"
     inkscape:pageopacity="0"
     inkscape:pageshadow="2"
     inkscape:window-width="1920"
     inkscape:window-height="1015"
     id="namedview4"
     showgrid="false"
     inkscape:zoom="0.17355346"
     inkscape:cx="-341.83872"
     inkscape:cy="1751.2022"
     inkscape:window-x="0"
     inkscape:window-y="0"
     inkscape:window-maximized="1"
     inkscape:current-layer="g10" /><g
     id="g10"
     inkscape:groupmode="layer"
     inkscape:label="ethereum-seeklogo.com"
     transform="matrix(1.3333333,0,0,-1.3333333,0,620.532)"><g
       id="g12"
       transform="translate(141.66005,112.80152)"><path
         d="M 0,0 V -114.158 L 140.134,82.672 Z"
         style="fill:#2e2f2f;fill-opacity:1;fill-rule:nonzero;stroke:none"
         id="path14"
         inkscape:connector-curvature="0" /></g><g
       id="g16"
       transform="translate(141.66005,285.73852)"><path
         d="m 0,0 v -146.529 l 140.13,82.89 z"
         style="fill:#000000;fill-opacity:1;fill-rule:nonzero;stroke:none"
         id="path18"
         inkscape:connector-curvature="0" /></g><g
       id="g20"
       transform="translate(141.66005,454.59062)"><path
         d="m 0,0 v -168.852 l 140.13,-63.639 z"
         style="fill:#2e2f2f;fill-opacity:1;fill-rule:nonzero;stroke:none"
         id="path22"
         inkscape:connector-curvature="0" /></g><g
       id="g24"
       transform="translate(141.66295,112.80152)"><path
         d="M 0,0 V -114.158 L -140.133,82.672 Z"
         style="fill:#828385;fill-opacity:1;fill-rule:nonzero;stroke:none"
         id="path26"
         inkscape:connector-curvature="0" /></g><g
       id="g28"
       transform="translate(141.66295,285.73852)"><path
         d="m 0,0 v -146.529 l -140.13,82.89 z"
         style="fill:#343535;fill-opacity:1;fill-rule:nonzero;stroke:none"
         id="path30"
         inkscape:connector-curvature="0" /></g><g
       id="g32"
       transform="translate(141.66295,454.59062)"><path
         d="m 0,0 v -168.852 l -140.13,-63.639 z"
         style="fill:#828385;fill-opacity:1;fill-rule:nonzero;stroke:none"
         id="path34"
         inkscape:connector-curvature="0" /></g><g
       id="g36"
       transform="matrix(1.8289333,0,0,1.8289333,299.54687,69.034237)"><g
         id="g38"
         clip-path="url(#clipPath42)"><g
           id="g44"
           transform="translate(56.2056,107.6348)"><path
             d="m 0,0 c -9.189,-0.068 -16.047,-4.119 -21.938,-9.309 -5.894,-5.188 -9.925,-15.004 -10.897,-24.086 h 65.608 c -0.542,9.082 -4.876,17.539 -10.186,23.208 C 17.361,-4.606 11.931,0.089 0,0 m -33.156,-40.044 c 0.913,-14.875 13.092,-33.435 33.693,-33.468 14.071,-0.022 22.574,6.5 28.559,14.864 1.063,1.484 3.369,1.73 4.946,0.809 l 0.011,-0.007 c 0.839,-0.489 1.437,-1.303 1.654,-2.249 0.217,-0.946 0.032,-1.939 -0.508,-2.746 -5.471,-8.161 -17.103,-18.558 -35.199,-17.7 -13.297,0 -23.024,6.979 -30.085,14.624 -5.729,6.202 -10.129,16.686 -10.129,29.334 0,12.43 3.755,22.483 11.27,30.16 C -21.432,1.252 -12.433,6.82 0,6.82 c 12.43,0 21.505,-4.69 28.653,-12.356 9.222,-9.891 11.719,-20.08 12.087,-30.846 0.032,-0.959 -0.326,-1.889 -0.992,-2.58 -0.667,-0.69 -1.586,-1.082 -2.545,-1.082 z"
             style="fill:#231f20;fill-opacity:1;fill-rule:nonzero;stroke:none"
             id="path46"
             inkscape:connector-curvature="0" /></g><g
           id="g48"
           transform="translate(380.9766,107.6348)"><path
             d="m 0,0 c -9.189,-0.068 -16.047,-4.119 -21.938,-9.309 -5.894,-5.188 -9.925,-15.004 -10.897,-24.086 h 65.608 c -0.542,9.082 -4.876,17.539 -10.186,23.208 C 17.361,-4.606 11.931,0.089 0,0 m -33.156,-40.044 c 0.913,-14.875 13.092,-33.435 33.693,-33.468 14.071,-0.022 22.574,6.5 28.559,14.864 1.063,1.484 3.369,1.73 4.946,0.809 l 0.011,-0.007 c 0.839,-0.489 1.437,-1.303 1.654,-2.249 0.217,-0.946 0.032,-1.939 -0.508,-2.746 -5.471,-8.161 -17.103,-18.558 -35.199,-17.7 -13.297,0 -23.024,6.979 -30.085,14.624 -5.729,6.202 -10.129,16.686 -10.129,29.334 0,12.43 3.755,22.483 11.27,30.16 C -21.432,1.252 -12.433,6.82 0,6.82 c 12.43,0 21.505,-4.69 28.653,-12.356 9.222,-9.891 11.719,-20.08 12.087,-30.846 0.032,-0.959 -0.326,-1.889 -0.992,-2.58 -0.667,-0.69 -1.586,-1.082 -2.545,-1.082 z"
             style="fill:#231f20;fill-opacity:1;fill-rule:nonzero;stroke:none"
             id="path50"
             inkscape:connector-curvature="0" /></g><g
           id="g52"
           transform="translate(581.9648,107.6348)"><path
             d="m 0,0 c -9.189,-0.068 -16.047,-4.119 -21.937,-9.309 -5.895,-5.188 -9.926,-15.004 -10.899,-24.086 H 32.773 C 32.23,-24.313 27.896,-15.856 22.586,-10.187 17.361,-4.606 11.93,0.089 0,0 m -33.156,-40.044 c 0.914,-14.875 13.092,-33.435 33.693,-33.468 14.071,-0.022 22.574,6.5 28.559,14.864 1.063,1.484 3.369,1.73 4.946,0.809 l 0.011,-0.007 c 0.839,-0.489 1.437,-1.303 1.654,-2.249 0.217,-0.946 0.032,-1.939 -0.509,-2.746 -5.469,-8.161 -17.102,-18.558 -35.198,-17.7 -13.297,0 -23.024,6.979 -30.086,14.624 -5.728,6.202 -10.129,16.686 -10.129,29.334 0,12.43 3.756,22.483 11.271,30.16 C -21.432,1.252 -12.433,6.82 0,6.82 c 12.43,0 21.506,-4.69 28.652,-12.356 9.223,-9.892 11.72,-20.082 12.087,-30.848 0.033,-0.96 -0.325,-1.891 -0.993,-2.581 -0.667,-0.69 -1.586,-1.079 -2.546,-1.079 z"
             style="fill:#231f20;fill-opacity:1;fill-rule:nonzero;stroke:none"
             id="path54"
             inkscape:connector-curvature="0" /></g><g
           id="g56"
           transform="translate(162.7583,106.1533)"><path
             d="M 0,0 V -74.623 C 0,-76.426 -1.475,-77.9 -3.277,-77.9 h -0.005 c -1.802,0 -3.277,1.474 -3.277,3.277 V 0 h -18.747 c -1.747,0 -3.176,1.429 -3.176,3.176 0,1.747 1.429,3.176 3.176,3.176 h 18.747 v 27.633 c 0,1.823 1.491,3.314 3.313,3.314 h 0.07 C -1.429,37.299 0,35.87 0,34.123 V 6.352 h 19.342 c 1.747,0 3.176,-1.429 3.176,-3.176 C 22.518,1.429 21.089,0 19.342,0 Z"
             style="fill:#231f20;fill-opacity:1;fill-rule:nonzero;stroke:none"
             id="path58"
             inkscape:connector-curvature="0" /></g><g
           id="g60"
           transform="translate(268.4297,113.4443)"><path
             d="m 0,0 c -13.033,1.797 -25.372,-2.54 -33.876,-16.589 v 82.813 c 0,1.747 -1.43,3.175 -3.176,3.175 h -0.07 c -1.822,0 -3.314,-1.491 -3.314,-3.313 v -148 c 0,-1.803 1.475,-3.277 3.278,-3.277 h 0.004 c 1.803,0 3.278,1.474 3.278,3.277 v 50.025 c 0,14.016 17.754,29.099 33.857,25.496 10.383,-2.323 20.746,-12.608 20.708,-29.084 v -46.437 c 0,-1.803 1.475,-3.277 3.278,-3.277 h 0.004 c 1.803,0 3.278,1.474 3.278,3.277 v 46.292 C 28.19,-21.508 18.452,-2.544 0,0"
             style="fill:#231f20;fill-opacity:1;fill-rule:nonzero;stroke:none"
             id="path62"
             inkscape:connector-curvature="0" /></g><g
           id="g64"
           transform="translate(694.8047,26.8301)"><path
             d="M 0,0 C 13.033,-1.797 25.373,2.54 33.875,16.589 V 4.681 c 0,-1.747 1.43,-3.176 3.176,-3.176 h 0.07 c 1.822,0 3.315,1.491 3.315,3.313 v 77.096 c 0,1.803 -1.475,3.277 -3.278,3.277 h -0.004 c -1.802,0 -3.277,-1.474 -3.277,-3.277 L 34.273,41.062 C 34.273,19.857 17.736,2.881 0.416,6.56 -9.992,8.77 -20.727,19.001 -20.689,35.477 v 46.437 c 0,1.803 -1.475,3.277 -3.278,3.277 h -0.004 c -1.802,0 -3.277,-1.474 -3.277,-3.277 V 35.622 C -27.248,18.299 -18.451,2.544 0,0"
             style="fill:#231f20;fill-opacity:1;fill-rule:nonzero;stroke:none"
             id="path66"
             inkscape:connector-curvature="0" /></g><g
           id="g68"
           transform="translate(884.7773,113.4443)"><path
             d="M 0,0 C -12.787,1.763 -28.914,-3.766 -35.652,-21.846 -39.574,-11.398 -48.418,-1.762 -61.197,0 -74.229,1.797 -86.688,-2.171 -95.189,-16.22 v 11.908 c 0,1.748 -1.43,3.176 -3.176,3.176 h -0.071 c -1.822,0 -3.314,-1.491 -3.314,-3.313 v -77.096 c 0,-1.803 1.475,-3.277 3.277,-3.277 h 0.004 c 1.803,0 3.278,1.474 3.278,3.277 l -0.397,40.853 c 0,21.204 16.654,37.811 33.977,34.132 10.011,-2.126 20.32,-11.678 21.056,-27.068 v -47.917 c 0,-0.118 0.032,-0.23 0.047,-0.346 v -0.023 c 0,-1.803 1.994,-3.277 3.797,-3.277 h 0.006 c 1.803,0 3.277,1.474 3.277,3.277 v 11.183 c 0.028,7.339 0.059,17.024 0.059,24.481 0,22.906 10.324,43.19 32.953,39.69 10.516,-1.626 21.143,-12.441 21.105,-28.917 v -46.437 c 0,-1.803 1.475,-3.277 3.278,-3.277 h 0.004 c 1.802,0 3.277,1.474 3.277,3.277 v 46.292 C 28.189,-21.508 18.451,-2.544 0,0"
             style="fill:#231f20;fill-opacity:1;fill-rule:nonzero;stroke:none"
             id="path70"
             inkscape:connector-curvature="0" /></g><g
           id="g72"
           transform="translate(507.666,108.8467)"><path
             d="m 0,0 c 0,0.991 -0.447,1.929 -1.215,2.554 -0.769,0.624 -1.758,0.69 -2.75,0.665 -13.506,-0.34 -26.26,-11.359 -29.543,-19.775 v 17.1 c 0,1.747 -1.43,3.176 -3.176,3.176 h -0.07 c -1.822,0 -3.314,-1.491 -3.314,-3.314 v -77.095 c 0,-1.803 1.474,-3.278 3.277,-3.278 h 0.006 c 1.803,0 3.277,1.475 3.277,3.278 l 0.209,38.591 c 0,18.506 14.268,34.209 30.766,34.994 C -1.037,-3.032 0,-1.526 0,-0.027 Z"
             style="fill:#231f20;fill-opacity:1;fill-rule:nonzero;stroke:none"
             id="path74"
             inkscape:connector-curvature="0" /></g></g></g></g></svg>