<?xml version="1.0" encoding="UTF-8" standalone="no"?>
<svg
   xmlns:dc="http://purl.org/dc/elements/1.1/"
   xmlns:cc="http://creativecommons.org/ns#"
   xmlns:rdf="http://www.w3.org/1999/02/22-rdf-syntax-ns#"
   xmlns:svg="http://www.w3.org/2000/svg"
   xmlns="http://www.w3.org/2000/svg"
   xmlns:sodipodi="http://sodipodi.sourceforge.net/DTD/sodipodi-0.dtd"
   xmlns:inkscape="http://www.inkscape.org/namespaces/inkscape"
   version="1.0"
   id="katman_1"
   x="0px"
   y="0px"
   viewBox="0 0 105 21"
   xml:space="preserve"
   sodipodi:docname="harmony-one.svg"
   width="105"
   height="21"
   inkscape:version="0.92.5 (2060ec1f9f, 2020-04-08)"><metadata
   id="metadata30"><rdf:RDF><cc:Work
       rdf:about=""><dc:format>image/svg+xml</dc:format><dc:type
         rdf:resource="http://purl.org/dc/dcmitype/StillImage" /><dc:title></dc:title></cc:Work></rdf:RDF></metadata><defs
   id="defs28" /><sodipodi:namedview
   pagecolor="#ffffff"
   bordercolor="#666666"
   borderopacity="1"
   objecttolerance="10"
   gridtolerance="10"
   guidetolerance="10"
   inkscape:pageopacity="0"
   inkscape:pageshadow="2"
   inkscape:window-width="1920"
   inkscape:window-height="1015"
   id="namedview26"
   showgrid="false"
   inkscape:zoom="3.9300699"
   inkscape:cx="-14.94116"
   inkscape:cy="27.299309"
   inkscape:window-x="0"
   inkscape:window-y="0"
   inkscape:window-maximized="1"
   inkscape:current-layer="katman_1" />
<style
   type="text/css"
   id="style2">
	.st0{fill:url(#SVGID_1_);}
	.st1{fill:#293258;}
</style>
<linearGradient
   id="SVGID_1_"
   gradientUnits="userSpaceOnUse"
   x1="34.455601"
   y1="56.470501"
   x2="20.238501"
   y2="42.2533"
   gradientTransform="matrix(1,0,0,-1,-18.956406,61.99422)">
	<stop
   offset="0"
   style="stop-color:#00E8A2"
   id="stop4" />
	<stop
   offset="1"
   style="stop-color:#00ADE8"
   id="stop6" />
</linearGradient>
<path
   class="st0"
   d="m 16.243594,0.394217 c -2.4,0 -4.4,2 -4.5,4.4 v 4.9 c -0.4,0 -0.9,0.1 -1.4,0.1 -0.4999998,0 -0.9999998,0 -1.3999998,0.1 v -5.1 c 0,-2.4 -2,-4.4 -4.4999999,-4.4 -2.4,0 -4.29999999,2 -4.39999999,4.4 v 11.8 c 0.1,2.4 1.99999999,4.4 4.49999999,4.4 2.3999999,-0.1 4.3999999,-2 4.3999999,-4.4 v -4.9 c 0.4,0 0.9,-0.1 1.3999998,-0.1 0.5,0 1,0 1.4,-0.1 v 5 c 0.1,2.4 2,4.4 4.5,4.4 2.4,-0.1 4.4,-2 4.4,-4.4 v -11.7 c 0,-2.4 -2,-4.4 -4.4,-4.4 z m -11.6999997,1.8 c 1.5,0 2.5999999,1.2 2.5999999,2.6 v 5.2 c -1.2999999,0.2 -2.5999999,0.6 -3.7999999,1.1 -0.5,0.3 -1,0.5 -1.5,0.9 v -7.2 c 0.1,-1.4 1.2,-2.6 2.7,-2.6 z m 2.5999999,14.4 c 0,1.5 -1.1999999,2.6 -2.5999999,2.6 -1.4,0 -2.6,-1.2 -2.6,-2.6 v -1.2 c 0,-1 0.8,-2 2.2,-2.6 1,-0.4 2,-0.7 3.0999999,-0.9 z m 9.0999998,2.6 c -1.5,0 -2.6,-1.2 -2.6,-2.6 v -5.2 c 1.3,-0.2 2.6,-0.6 3.8,-1.1 0.5,-0.3 1,-0.5 1.5,-0.9 v 7.2 c -0.1,1.5 -1.3,2.6 -2.7,2.6 z m 0.4,-10.6 c -1,0.4 -2,0.7 -3.1,0.9 v -4.7 c 0,-1.5 1.2,-2.6 2.6,-2.6 1.4,0 2.6,1.2 2.6,2.6 v 1.2 c 0.1,1 -0.7,2 -2.1,2.6 z"
   id="path9"
   inkscape:connector-curvature="0"
   style="fill:url(#SVGID_1_)" />
<path
   class="st1"
   d="m 80.243594,7.494217 c -2.8,0 -5.1,2.2 -5,5.1 0,2.8 2.2,5.1 5.1,5 2.8,0 5,-2.2 5,-5.1 -0.1,-2.7 -2.3,-5 -5.1,-5 z m 3.4,5.1 c 0,1.9 -1.5,3.4 -3.4,3.4 -1.9,0 -3.4,-1.5 -3.4,-3.4 0,-1.9 1.5,-3.4 3.4,-3.4 1.9,0 3.4,1.5 3.4,3.4 z"
   id="path11"
   inkscape:connector-curvature="0"
   style="fill:#293258" />
<path
   class="st1"
   d="m 50.043594,7.594217 c -0.4,0 -0.8,0.4 -0.8,0.8 v 0.4 c -2,-1.9 -5.3,-1.7 -7.1,0.3 -1.9,2 -1.7,5.3 0.3,7.1 1.9,1.8 4.9,1.8 6.8,0 v 0.4 c 0,0.4 0.3,0.8 0.8,0.8 0.4,0 0.8,-0.3 0.8,-0.8 v -0.1 -8.3 c 0,-0.3 -0.4,-0.6 -0.8,-0.6 z m -0.9,5 c 0,1.9 -1.5,3.4 -3.4,3.4 -1.9,0 -3.4,-1.5 -3.4,-3.4 0,-1.9 1.5,-3.4 3.4,-3.4 1.9,0 3.4,1.5 3.4,3.4 z"
   id="path13"
   inkscape:connector-curvature="0"
   style="fill:#293258" />
<path
   class="st1"
   d="m 58.743594,8.294217 c 0,0.4 -0.4,0.8 -0.8,0.8 h -0.1 c -1.9,0 -3.4,1.5 -3.4,3.4 -0.1,0.2 0,2.8 0,4.3 -0.1,0.4 -0.4,0.8 -0.9,0.7 -0.4,-0.1 -0.7,-0.4 -0.7,-0.8 v -8.3 c 0,-0.4 0.4,-0.8 0.8,-0.8 h 0.1 c 0.4,0.1 0.8,0.4 0.8,0.8 v 0.4 c 0.9,-0.8 2.1,-1.3 3.4,-1.3 h 0.1 c 0.3,0 0.7,0.4 0.7,0.8 z"
   id="path15"
   inkscape:connector-curvature="0"
   style="fill:#293258" />
<path
   class="st1"
   d="m 94.943594,11.694217 v 5 c 0,0.4 -0.4,0.8 -0.8,0.8 -0.4,0 -0.8,-0.4 -0.8,-0.8 v -0.8 -4.2 c 0,-1.4 -1.2,-2.6 -2.6,-2.6 -0.1,0 -0.1,0 -0.2,0 -1.3,0.1 -2.4,1.3 -2.4,2.6 v 1 3.1 0.8 c 0,0.4 -0.4,0.8 -0.8,0.8 -0.4,0 -0.8,-0.4 -0.8,-0.8 v -8.3 c 0,-0.4 0.4,-0.8 0.8,-0.8 0.4,0 0.8,0.4 0.8,0.8 v 0.1 c 0.6,-0.5 1.5,-0.8 2.4,-0.9 2.3,-0.1 4.3,1.7 4.4,4 0,0.1 0,0.2 0,0.2 z"
   id="path17"
   inkscape:connector-curvature="0"
   style="fill:#293258" />
<path
   class="st1"
   d="m 39.143594,4.594217 v 12.2 c 0,0.4 -0.4,0.8 -0.8,0.8 -0.4,0 -0.8,-0.4 -0.8,-0.8 v -5.5 h -8.3 v 5.5 c 0,0.4 -0.4,0.8 -0.8,0.8 -0.4,0 -0.8,-0.4 -0.8,-0.8 v -12.2 c 0,-0.4 0.4,-0.8 0.8,-0.8 0.4,0 0.8,0.4 0.8,0.8 v 5.3 h 8.4 v -5.3 c 0,-0.4 0.4,-0.8 0.8,-0.8 0.3,0 0.7,0.4 0.7,0.8 z"
   id="path19"
   inkscape:connector-curvature="0"
   style="fill:#293258" />
<path
   class="st1"
   d="m 74.043594,12.094217 v 4.6 c 0,0.4 -0.4,0.8 -0.8,0.8 -0.4,0 -0.8,-0.4 -0.8,-0.8 v -4.2 -1.1 c 0,-1.3 -1,-2.3 -2.2,-2.3 -1.2,0 -2.3,1 -2.3,2.2 0,0.1 0,0.1 0,0.1 v 5.3 c 0,0.4 -0.3,0.8 -0.8,0.8 -0.4,0 -0.8,-0.3 -0.8,-0.8 v -0.1 -4.3 -1.1 c 0,-1.3 -1,-2.3 -2.2,-2.3 -1.2,0 -2.3,1 -2.3,2.2 0,0.1 0,0.1 0,0.1 v 5.3 c 0,0.4 -0.3,0.8 -0.8,0.8 -0.4,0 -0.8,-0.3 -0.8,-0.8 v -0.1 -8.3 c 0,-0.4 0.4,-0.8 0.8,-0.8 0.4,0 0.8,0.3 0.8,0.7 1.7,-1.2 4.1,-0.9 5.4,0.8 1.3,-1.7 3.8,-2 5.4,-0.7 1,0.8 1.5,1.9 1.5,3.1 z"
   id="path21"
   inkscape:connector-curvature="0"
   style="fill:#293258" />
<path
   class="st1"
   d="m 104.9436,8.694217 -5.500002,11.9 c -0.3,0.4 -0.8,0.5 -1.2,0.3 -0.3,-0.2 -0.5,-0.6 -0.4,-1 l 1.5,-3.2 -3.700004,-8 c -0.3,-0.4 -0.1,-0.9 0.3,-1.2 0.400004,-0.3 0.900004,-0.1 1.200004,0.3 0,0.1 0.1,0.1 0.1,0.1 l 3.100002,6.7 3.1,-6.7 c 0.1,-0.4 0.6,-0.6 1,-0.5 0.4,0.1 0.6,0.6 0.5,1 0.1,0.2 0,0.3 0,0.3 z"
   id="path23"
   inkscape:connector-curvature="0"
   style="fill:#293258" />
</svg>